<?xml version="1.0" encoding="UTF-8" standalone="no"?><svg xmlns="http://www.w3.org/2000/svg" xmlns:xlink="http://www.w3.org/1999/xlink" contentStyleType="text/css" height="425px" preserveAspectRatio="none" style="width:1830px;height:425px;background:#FFFFFF;" version="1.1" viewBox="0 0 1830 425" width="1830px" zoomAndPan="magnify"><defs/><g><!--MD5=[45c6380d22fb72521f5065026b277fb9]
class Slot--><g id="elem_Slot"><rect codeLine="3" fill="#F1F1F1" height="48" id="Slot" rx="2.5" ry="2.5" style="stroke:#181818;stroke-width:0.5;" width="64" x="1094" y="134"/><ellipse cx="1109" cy="150" fill="#A9DCDF" rx="11" ry="11" style="stroke:#181818;stroke-width:1.0;"/><path d="M1104.1719,155.75 L1107.5156,143.5625 L1110.6563,143.5625 L1114.0313,155.75 L1111.5625,155.75 L1110.8281,152.7344 L1107.3125,152.7344 L1106.5625,155.75 L1104.1719,155.75 Z M1108.5781,147.7031 L1107.8281,150.7031 L1110.3438,150.7031 L1109.625,147.7031 Q1109.4844,147.125 1109.3594,146.5781 Q1109.2344,146.0156 1109.0938,145.4375 Q1108.9844,146.0156 1108.8438,146.5781 Q1108.7031,147.125 1108.5781,147.7031 Z " fill="#000000"/><text fill="#000000" font-family="Courier" font-size="14" font-style="italic" lengthAdjust="spacing" textLength="32" x="1123" y="155.432">Slot</text><line style="stroke:#181818;stroke-width:0.5;" x1="1095" x2="1157" y1="166" y2="166"/><line style="stroke:#181818;stroke-width:0.5;" x1="1095" x2="1157" y1="174" y2="174"/></g><!--MD5=[7f29adcb85005cb2b8d01672492ad969]
class SlotFactory--><g id="elem_SlotFactory"><rect codeLine="4" fill="#F1F1F1" height="48" id="SlotFactory" rx="2.5" ry="2.5" style="stroke:#181818;stroke-width:0.5;" width="120" x="1324" y="7"/><ellipse cx="1339" cy="23" fill="#A9DCDF" rx="11" ry="11" style="stroke:#181818;stroke-width:1.0;"/><path d="M1334.1719,28.75 L1337.5156,16.5625 L1340.6563,16.5625 L1344.0313,28.75 L1341.5625,28.75 L1340.8281,25.7344 L1337.3125,25.7344 L1336.5625,28.75 L1334.1719,28.75 Z M1338.5781,20.7031 L1337.8281,23.7031 L1340.3438,23.7031 L1339.625,20.7031 Q1339.4844,20.125 1339.3594,19.5781 Q1339.2344,19.0156 1339.0938,18.4375 Q1338.9844,19.0156 1338.8438,19.5781 Q1338.7031,20.125 1338.5781,20.7031 Z " fill="#000000"/><text fill="#000000" font-family="Courier" font-size="14" font-style="italic" lengthAdjust="spacing" textLength="88" x="1353" y="28.432">SlotFactory</text><line style="stroke:#181818;stroke-width:0.5;" x1="1325" x2="1443" y1="39" y2="39"/><line style="stroke:#181818;stroke-width:0.5;" x1="1325" x2="1443" y1="47" y2="47"/></g><!--MD5=[fb93bef6fe4d41e18f54a4741e19de09]
class SlotComponentFactory--><g id="elem_SlotComponentFactory"><rect codeLine="5" fill="#F1F1F1" height="48" id="SlotComponentFactory" rx="2.5" ry="2.5" style="stroke:#181818;stroke-width:0.5;" width="192" x="366" y="261"/><ellipse cx="381" cy="277" fill="#A9DCDF" rx="11" ry="11" style="stroke:#181818;stroke-width:1.0;"/><path d="M376.1719,282.75 L379.5156,270.5625 L382.6563,270.5625 L386.0313,282.75 L383.5625,282.75 L382.8281,279.7344 L379.3125,279.7344 L378.5625,282.75 L376.1719,282.75 Z M380.5781,274.7031 L379.8281,277.7031 L382.3438,277.7031 L381.625,274.7031 Q381.4844,274.125 381.3594,273.5781 Q381.2344,273.0156 381.0938,272.4375 Q380.9844,273.0156 380.8438,273.5781 Q380.7031,274.125 380.5781,274.7031 Z " fill="#000000"/><text fill="#000000" font-family="Courier" font-size="14" font-style="italic" lengthAdjust="spacing" textLength="160" x="395" y="282.432">SlotComponentFactory</text><line style="stroke:#181818;stroke-width:0.5;" x1="367" x2="557" y1="293" y2="293"/><line style="stroke:#181818;stroke-width:0.5;" x1="367" x2="557" y1="301" y2="301"/></g><!--MD5=[94f7443eecb43b77a1c369635aa5ae0a]
class StraightSlot--><g id="elem_StraightSlot"><rect codeLine="7" fill="#F1F1F1" height="48" id="StraightSlot" rx="2.5" ry="2.5" style="stroke:#181818;stroke-width:0.5;" width="128" x="593" y="261"/><ellipse cx="608" cy="277" fill="#A9DCDF" rx="11" ry="11" style="stroke:#181818;stroke-width:1.0;"/><path d="M603.1719,282.75 L606.5156,270.5625 L609.6563,270.5625 L613.0313,282.75 L610.5625,282.75 L609.8281,279.7344 L606.3125,279.7344 L605.5625,282.75 L603.1719,282.75 Z M607.5781,274.7031 L606.8281,277.7031 L609.3438,277.7031 L608.625,274.7031 Q608.4844,274.125 608.3594,273.5781 Q608.2344,273.0156 608.0938,272.4375 Q607.9844,273.0156 607.8438,273.5781 Q607.7031,274.125 607.5781,274.7031 Z " fill="#000000"/><text fill="#000000" font-family="Courier" font-size="14" font-style="italic" lengthAdjust="spacing" textLength="96" x="622" y="282.432">StraightSlot</text><line style="stroke:#181818;stroke-width:0.5;" x1="594" x2="720" y1="293" y2="293"/><line style="stroke:#181818;stroke-width:0.5;" x1="594" x2="720" y1="301" y2="301"/></g><!--MD5=[864388eccc96c64b32ae5a6c2f9fd405]
class BonusSlot--><g id="elem_BonusSlot"><rect codeLine="8" fill="#F1F1F1" height="48" id="BonusSlot" rx="2.5" ry="2.5" style="stroke:#181818;stroke-width:0.5;" width="104" x="756" y="261"/><ellipse cx="771" cy="277" fill="#A9DCDF" rx="11" ry="11" style="stroke:#181818;stroke-width:1.0;"/><path d="M766.1719,282.75 L769.5156,270.5625 L772.6563,270.5625 L776.0313,282.75 L773.5625,282.75 L772.8281,279.7344 L769.3125,279.7344 L768.5625,282.75 L766.1719,282.75 Z M770.5781,274.7031 L769.8281,277.7031 L772.3438,277.7031 L771.625,274.7031 Q771.4844,274.125 771.3594,273.5781 Q771.2344,273.0156 771.0938,272.4375 Q770.9844,273.0156 770.8438,273.5781 Q770.7031,274.125 770.5781,274.7031 Z " fill="#000000"/><text fill="#000000" font-family="Courier" font-size="14" font-style="italic" lengthAdjust="spacing" textLength="72" x="785" y="282.432">BonusSlot</text><line style="stroke:#181818;stroke-width:0.5;" x1="757" x2="859" y1="293" y2="293"/><line style="stroke:#181818;stroke-width:0.5;" x1="757" x2="859" y1="301" y2="301"/></g><!--MD5=[a3f0d39b7622e0342235e80a338eb440]
class ProgressiveSlot--><g id="elem_ProgressiveSlot"><rect codeLine="9" fill="#F1F1F1" height="48" id="ProgressiveSlot" rx="2.5" ry="2.5" style="stroke:#181818;stroke-width:0.5;" width="152" x="895" y="261"/><ellipse cx="910" cy="277" fill="#A9DCDF" rx="11" ry="11" style="stroke:#181818;stroke-width:1.0;"/><path d="M905.1719,282.75 L908.5156,270.5625 L911.6563,270.5625 L915.0313,282.75 L912.5625,282.75 L911.8281,279.7344 L908.3125,279.7344 L907.5625,282.75 L905.1719,282.75 Z M909.5781,274.7031 L908.8281,277.7031 L911.3438,277.7031 L910.625,274.7031 Q910.4844,274.125 910.3594,273.5781 Q910.2344,273.0156 910.0938,272.4375 Q909.9844,273.0156 909.8438,273.5781 Q909.7031,274.125 909.5781,274.7031 Z " fill="#000000"/><text fill="#000000" font-family="Courier" font-size="14" font-style="italic" lengthAdjust="spacing" textLength="120" x="924" y="282.432">ProgressiveSlot</text><line style="stroke:#181818;stroke-width:0.5;" x1="896" x2="1046" y1="293" y2="293"/><line style="stroke:#181818;stroke-width:0.5;" x1="896" x2="1046" y1="301" y2="301"/></g><!--MD5=[1e5b20c0f89f699a9aa633824414fa54]
class Cabinet--><g id="elem_Cabinet"><rect codeLine="11" fill="#F1F1F1" height="48" id="Cabinet" rx="2.5" ry="2.5" style="stroke:#181818;stroke-width:0.5;" width="88" x="1082" y="261"/><ellipse cx="1097" cy="277" fill="#A9DCDF" rx="11" ry="11" style="stroke:#181818;stroke-width:1.0;"/><path d="M1092.1719,282.75 L1095.5156,270.5625 L1098.6563,270.5625 L1102.0313,282.75 L1099.5625,282.75 L1098.8281,279.7344 L1095.3125,279.7344 L1094.5625,282.75 L1092.1719,282.75 Z M1096.5781,274.7031 L1095.8281,277.7031 L1098.3438,277.7031 L1097.625,274.7031 Q1097.4844,274.125 1097.3594,273.5781 Q1097.2344,273.0156 1097.0938,272.4375 Q1096.9844,273.0156 1096.8438,273.5781 Q1096.7031,274.125 1096.5781,274.7031 Z " fill="#000000"/><text fill="#000000" font-family="Courier" font-size="14" font-style="italic" lengthAdjust="spacing" textLength="56" x="1111" y="282.432">Cabinet</text><line style="stroke:#181818;stroke-width:0.5;" x1="1083" x2="1169" y1="293" y2="293"/><line style="stroke:#181818;stroke-width:0.5;" x1="1083" x2="1169" y1="301" y2="301"/></g><!--MD5=[764fca796ce7f635542948d8fc39db5e]
class Payment--><g id="elem_Payment"><rect codeLine="12" fill="#F1F1F1" height="48" id="Payment" rx="2.5" ry="2.5" style="stroke:#181818;stroke-width:0.5;" width="88" x="1205" y="261"/><ellipse cx="1220" cy="277" fill="#A9DCDF" rx="11" ry="11" style="stroke:#181818;stroke-width:1.0;"/><path d="M1215.1719,282.75 L1218.5156,270.5625 L1221.6563,270.5625 L1225.0313,282.75 L1222.5625,282.75 L1221.8281,279.7344 L1218.3125,279.7344 L1217.5625,282.75 L1215.1719,282.75 Z M1219.5781,274.7031 L1218.8281,277.7031 L1221.3438,277.7031 L1220.625,274.7031 Q1220.4844,274.125 1220.3594,273.5781 Q1220.2344,273.0156 1220.0938,272.4375 Q1219.9844,273.0156 1219.8438,273.5781 Q1219.7031,274.125 1219.5781,274.7031 Z " fill="#000000"/><text fill="#000000" font-family="Courier" font-size="14" font-style="italic" lengthAdjust="spacing" textLength="56" x="1234" y="282.432">Payment</text><line style="stroke:#181818;stroke-width:0.5;" x1="1206" x2="1292" y1="293" y2="293"/><line style="stroke:#181818;stroke-width:0.5;" x1="1206" x2="1292" y1="301" y2="301"/></g><!--MD5=[292033ffe4750640675b59034298e578]
class Display--><g id="elem_Display"><rect codeLine="13" fill="#F1F1F1" height="48" id="Display" rx="2.5" ry="2.5" style="stroke:#181818;stroke-width:0.5;" width="88" x="1328" y="261"/><ellipse cx="1343" cy="277" fill="#A9DCDF" rx="11" ry="11" style="stroke:#181818;stroke-width:1.0;"/><path d="M1338.1719,282.75 L1341.5156,270.5625 L1344.6563,270.5625 L1348.0313,282.75 L1345.5625,282.75 L1344.8281,279.7344 L1341.3125,279.7344 L1340.5625,282.75 L1338.1719,282.75 Z M1342.5781,274.7031 L1341.8281,277.7031 L1344.3438,277.7031 L1343.625,274.7031 Q1343.4844,274.125 1343.3594,273.5781 Q1343.2344,273.0156 1343.0938,272.4375 Q1342.9844,273.0156 1342.8438,273.5781 Q1342.7031,274.125 1342.5781,274.7031 Z " fill="#000000"/><text fill="#000000" font-family="Courier" font-size="14" font-style="italic" lengthAdjust="spacing" textLength="56" x="1357" y="282.432">Display</text><line style="stroke:#181818;stroke-width:0.5;" x1="1329" x2="1415" y1="293" y2="293"/><line style="stroke:#181818;stroke-width:0.5;" x1="1329" x2="1415" y1="301" y2="301"/></g><!--MD5=[1d7c5a491d68c757d98f4015f46ff360]
class CPU--><g id="elem_CPU"><rect codeLine="14" fill="#F1F1F1" height="48" id="CPU" rx="2.5" ry="2.5" style="stroke:#181818;stroke-width:0.5;" width="56" x="1451" y="261"/><ellipse cx="1466" cy="277" fill="#A9DCDF" rx="11" ry="11" style="stroke:#181818;stroke-width:1.0;"/><path d="M1461.1719,282.75 L1464.5156,270.5625 L1467.6563,270.5625 L1471.0313,282.75 L1468.5625,282.75 L1467.8281,279.7344 L1464.3125,279.7344 L1463.5625,282.75 L1461.1719,282.75 Z M1465.5781,274.7031 L1464.8281,277.7031 L1467.3438,277.7031 L1466.625,274.7031 Q1466.4844,274.125 1466.3594,273.5781 Q1466.2344,273.0156 1466.0938,272.4375 Q1465.9844,273.0156 1465.8438,273.5781 Q1465.7031,274.125 1465.5781,274.7031 Z " fill="#000000"/><text fill="#000000" font-family="Courier" font-size="14" font-style="italic" lengthAdjust="spacing" textLength="24" x="1480" y="282.432">CPU</text><line style="stroke:#181818;stroke-width:0.5;" x1="1452" x2="1506" y1="293" y2="293"/><line style="stroke:#181818;stroke-width:0.5;" x1="1452" x2="1506" y1="301" y2="301"/></g><!--MD5=[3be0c582068517d01fc45711c0a07f3e]
class OS--><g id="elem_OS"><rect codeLine="15" fill="#F1F1F1" height="48" id="OS" rx="2.5" ry="2.5" style="stroke:#181818;stroke-width:0.5;" width="48" x="1542" y="261"/><ellipse cx="1557" cy="277" fill="#A9DCDF" rx="11" ry="11" style="stroke:#181818;stroke-width:1.0;"/><path d="M1552.1719,282.75 L1555.5156,270.5625 L1558.6563,270.5625 L1562.0313,282.75 L1559.5625,282.75 L1558.8281,279.7344 L1555.3125,279.7344 L1554.5625,282.75 L1552.1719,282.75 Z M1556.5781,274.7031 L1555.8281,277.7031 L1558.3438,277.7031 L1557.625,274.7031 Q1557.4844,274.125 1557.3594,273.5781 Q1557.2344,273.0156 1557.0938,272.4375 Q1556.9844,273.0156 1556.8438,273.5781 Q1556.7031,274.125 1556.5781,274.7031 Z " fill="#000000"/><text fill="#000000" font-family="Courier" font-size="14" font-style="italic" lengthAdjust="spacing" textLength="16" x="1571" y="282.432">OS</text><line style="stroke:#181818;stroke-width:0.5;" x1="1543" x2="1589" y1="293" y2="293"/><line style="stroke:#181818;stroke-width:0.5;" x1="1543" x2="1589" y1="301" y2="301"/></g><!--MD5=[7f44dbd9d3f3536004884d79a1df07e5]
class NevadaSlotFactory--><g id="elem_NevadaSlotFactory"><rect codeLine="17" fill="#F1F1F1" height="48" id="NevadaSlotFactory" rx="2.5" ry="2.5" style="stroke:#181818;stroke-width:0.5;" width="168" x="1193" y="134"/><ellipse cx="1208" cy="150" fill="#ADD1B2" rx="11" ry="11" style="stroke:#181818;stroke-width:1.0;"/><path d="M1207.4688,156.9219 Q1205.7188,156.9219 1204.5781,156.1875 Q1203.4531,155.4375 1202.8906,154.0938 Q1202.3438,152.7344 1202.3438,150.9375 Q1202.3438,148.9063 1203,147.4531 Q1203.6563,146 1204.9375,145.2188 Q1206.2188,144.4375 1208.0938,144.4375 Q1208.9844,144.4375 1209.6563,144.625 Q1210.3281,144.7969 1211.0156,145.1406 L1210.2031,147.1563 Q1209.5781,146.8438 1209.0313,146.7188 Q1208.5,146.5938 1208.0156,146.5938 Q1206.8438,146.5938 1206.1406,147.125 Q1205.4375,147.6563 1205.1406,148.6094 Q1204.8438,149.5625 1204.8438,150.8281 Q1204.8438,152.8438 1205.5625,153.8125 Q1206.2813,154.7656 1207.875,154.7656 Q1208.4688,154.7656 1209.0938,154.6094 Q1209.7188,154.4531 1210.5469,154.0781 L1210.5469,156.2969 Q1209.8125,156.6094 1209.0156,156.7656 Q1208.2344,156.9219 1207.4688,156.9219 Z " fill="#000000"/><text fill="#000000" font-family="Courier" font-size="14" lengthAdjust="spacing" textLength="136" x="1222" y="155.432">NevadaSlotFactory</text><line style="stroke:#181818;stroke-width:0.5;" x1="1194" x2="1360" y1="166" y2="166"/><line style="stroke:#181818;stroke-width:0.5;" x1="1194" x2="1360" y1="174" y2="174"/></g><!--MD5=[175804f8bcbe301caa42cf103dba4305]
class NewJerseySlotFactory--><g id="elem_NewJerseySlotFactory"><rect codeLine="18" fill="#F1F1F1" height="48" id="NewJerseySlotFactory" rx="2.5" ry="2.5" style="stroke:#181818;stroke-width:0.5;" width="192" x="1396" y="134"/><ellipse cx="1411" cy="150" fill="#ADD1B2" rx="11" ry="11" style="stroke:#181818;stroke-width:1.0;"/><path d="M1410.4688,156.9219 Q1408.7188,156.9219 1407.5781,156.1875 Q1406.4531,155.4375 1405.8906,154.0938 Q1405.3438,152.7344 1405.3438,150.9375 Q1405.3438,148.9063 1406,147.4531 Q1406.6563,146 1407.9375,145.2188 Q1409.2188,144.4375 1411.0938,144.4375 Q1411.9844,144.4375 1412.6563,144.625 Q1413.3281,144.7969 1414.0156,145.1406 L1413.2031,147.1563 Q1412.5781,146.8438 1412.0313,146.7188 Q1411.5,146.5938 1411.0156,146.5938 Q1409.8438,146.5938 1409.1406,147.125 Q1408.4375,147.6563 1408.1406,148.6094 Q1407.8438,149.5625 1407.8438,150.8281 Q1407.8438,152.8438 1408.5625,153.8125 Q1409.2813,154.7656 1410.875,154.7656 Q1411.4688,154.7656 1412.0938,154.6094 Q1412.7188,154.4531 1413.5469,154.0781 L1413.5469,156.2969 Q1412.8125,156.6094 1412.0156,156.7656 Q1411.2344,156.9219 1410.4688,156.9219 Z " fill="#000000"/><text fill="#000000" font-family="Courier" font-size="14" lengthAdjust="spacing" textLength="160" x="1425" y="155.432">NewJerseySlotFactory</text><line style="stroke:#181818;stroke-width:0.5;" x1="1397" x2="1587" y1="166" y2="166"/><line style="stroke:#181818;stroke-width:0.5;" x1="1397" x2="1587" y1="174" y2="174"/></g><!--MD5=[f2bb77a22bb0ce8a55bb39ffe684c30a]
class WashingtonSlotFactory--><g id="elem_WashingtonSlotFactory"><rect codeLine="19" fill="#F1F1F1" height="48" id="WashingtonSlotFactory" rx="2.5" ry="2.5" style="stroke:#181818;stroke-width:0.5;" width="200" x="1623" y="134"/><ellipse cx="1638" cy="150" fill="#ADD1B2" rx="11" ry="11" style="stroke:#181818;stroke-width:1.0;"/><path d="M1637.4688,156.9219 Q1635.7188,156.9219 1634.5781,156.1875 Q1633.4531,155.4375 1632.8906,154.0938 Q1632.3438,152.7344 1632.3438,150.9375 Q1632.3438,148.9063 1633,147.4531 Q1633.6563,146 1634.9375,145.2188 Q1636.2188,144.4375 1638.0938,144.4375 Q1638.9844,144.4375 1639.6563,144.625 Q1640.3281,144.7969 1641.0156,145.1406 L1640.2031,147.1563 Q1639.5781,146.8438 1639.0313,146.7188 Q1638.5,146.5938 1638.0156,146.5938 Q1636.8438,146.5938 1636.1406,147.125 Q1635.4375,147.6563 1635.1406,148.6094 Q1634.8438,149.5625 1634.8438,150.8281 Q1634.8438,152.8438 1635.5625,153.8125 Q1636.2813,154.7656 1637.875,154.7656 Q1638.4688,154.7656 1639.0938,154.6094 Q1639.7188,154.4531 1640.5469,154.0781 L1640.5469,156.2969 Q1639.8125,156.6094 1639.0156,156.7656 Q1638.2344,156.9219 1637.4688,156.9219 Z " fill="#000000"/><text fill="#000000" font-family="Courier" font-size="14" lengthAdjust="spacing" textLength="168" x="1652" y="155.432">WashingtonSlotFactory</text><line style="stroke:#181818;stroke-width:0.5;" x1="1624" x2="1822" y1="166" y2="166"/><line style="stroke:#181818;stroke-width:0.5;" x1="1624" x2="1822" y1="174" y2="174"/></g><!--MD5=[55cf623699ac3b936fa800bc469b3b6e]
class NVStraightSlotComponentFactory--><g id="elem_NVStraightSlotComponentFactory"><rect codeLine="21" fill="#F1F1F1" height="48" id="NVStraightSlotComponentFactory" rx="2.5" ry="2.5" style="stroke:#181818;stroke-width:0.5;" width="272" x="7" y="370"/><ellipse cx="22" cy="386" fill="#ADD1B2" rx="11" ry="11" style="stroke:#181818;stroke-width:1.0;"/><path d="M21.4688,392.9219 Q19.7188,392.9219 18.5781,392.1875 Q17.4531,391.4375 16.8906,390.0938 Q16.3438,388.7344 16.3438,386.9375 Q16.3438,384.9063 17,383.4531 Q17.6563,382 18.9375,381.2188 Q20.2188,380.4375 22.0938,380.4375 Q22.9844,380.4375 23.6563,380.625 Q24.3281,380.7969 25.0156,381.1406 L24.2031,383.1563 Q23.5781,382.8438 23.0313,382.7188 Q22.5,382.5938 22.0156,382.5938 Q20.8438,382.5938 20.1406,383.125 Q19.4375,383.6563 19.1406,384.6094 Q18.8438,385.5625 18.8438,386.8281 Q18.8438,388.8438 19.5625,389.8125 Q20.2813,390.7656 21.875,390.7656 Q22.4688,390.7656 23.0938,390.6094 Q23.7188,390.4531 24.5469,390.0781 L24.5469,392.2969 Q23.8125,392.6094 23.0156,392.7656 Q22.2344,392.9219 21.4688,392.9219 Z " fill="#000000"/><text fill="#000000" font-family="Courier" font-size="14" lengthAdjust="spacing" textLength="240" x="36" y="391.432">NVStraightSlotComponentFactory</text><line style="stroke:#181818;stroke-width:0.5;" x1="8" x2="278" y1="402" y2="402"/><line style="stroke:#181818;stroke-width:0.5;" x1="8" x2="278" y1="410" y2="410"/></g><!--MD5=[3ef0a07183954fb9810d1a8337a561d5]
class NVProgressiveSlotComponentFactory--><g id="elem_NVProgressiveSlotComponentFactory"><rect codeLine="22" fill="#F1F1F1" height="48" id="NVProgressiveSlotComponentFactory" rx="2.5" ry="2.5" style="stroke:#181818;stroke-width:0.5;" width="296" x="314" y="370"/><ellipse cx="329" cy="386" fill="#ADD1B2" rx="11" ry="11" style="stroke:#181818;stroke-width:1.0;"/><path d="M328.4688,392.9219 Q326.7188,392.9219 325.5781,392.1875 Q324.4531,391.4375 323.8906,390.0938 Q323.3438,388.7344 323.3438,386.9375 Q323.3438,384.9063 324,383.4531 Q324.6563,382 325.9375,381.2188 Q327.2188,380.4375 329.0938,380.4375 Q329.9844,380.4375 330.6563,380.625 Q331.3281,380.7969 332.0156,381.1406 L331.2031,383.1563 Q330.5781,382.8438 330.0313,382.7188 Q329.5,382.5938 329.0156,382.5938 Q327.8438,382.5938 327.1406,383.125 Q326.4375,383.6563 326.1406,384.6094 Q325.8438,385.5625 325.8438,386.8281 Q325.8438,388.8438 326.5625,389.8125 Q327.2813,390.7656 328.875,390.7656 Q329.4688,390.7656 330.0938,390.6094 Q330.7188,390.4531 331.5469,390.0781 L331.5469,392.2969 Q330.8125,392.6094 330.0156,392.7656 Q329.2344,392.9219 328.4688,392.9219 Z " fill="#000000"/><text fill="#000000" font-family="Courier" font-size="14" lengthAdjust="spacing" textLength="264" x="343" y="391.432">NVProgressiveSlotComponentFactory</text><line style="stroke:#181818;stroke-width:0.5;" x1="315" x2="609" y1="402" y2="402"/><line style="stroke:#181818;stroke-width:0.5;" x1="315" x2="609" y1="410" y2="410"/></g><!--MD5=[afccdd4813b903c256b54eec05b36b25]
class WSBonusSlotComponentFactory--><g id="elem_WSBonusSlotComponentFactory"><rect codeLine="24" fill="#F1F1F1" height="48" id="WSBonusSlotComponentFactory" rx="2.5" ry="2.5" style="stroke:#181818;stroke-width:0.5;" width="248" x="645" y="370"/><ellipse cx="660" cy="386" fill="#ADD1B2" rx="11" ry="11" style="stroke:#181818;stroke-width:1.0;"/><path d="M659.4688,392.9219 Q657.7188,392.9219 656.5781,392.1875 Q655.4531,391.4375 654.8906,390.0938 Q654.3438,388.7344 654.3438,386.9375 Q654.3438,384.9063 655,383.4531 Q655.6563,382 656.9375,381.2188 Q658.2188,380.4375 660.0938,380.4375 Q660.9844,380.4375 661.6563,380.625 Q662.3281,380.7969 663.0156,381.1406 L662.2031,383.1563 Q661.5781,382.8438 661.0313,382.7188 Q660.5,382.5938 660.0156,382.5938 Q658.8438,382.5938 658.1406,383.125 Q657.4375,383.6563 657.1406,384.6094 Q656.8438,385.5625 656.8438,386.8281 Q656.8438,388.8438 657.5625,389.8125 Q658.2813,390.7656 659.875,390.7656 Q660.4688,390.7656 661.0938,390.6094 Q661.7188,390.4531 662.5469,390.0781 L662.5469,392.2969 Q661.8125,392.6094 661.0156,392.7656 Q660.2344,392.9219 659.4688,392.9219 Z " fill="#000000"/><text fill="#000000" font-family="Courier" font-size="14" lengthAdjust="spacing" textLength="216" x="674" y="391.432">WSBonusSlotComponentFactory</text><line style="stroke:#181818;stroke-width:0.5;" x1="646" x2="892" y1="402" y2="402"/><line style="stroke:#181818;stroke-width:0.5;" x1="646" x2="892" y1="410" y2="410"/></g><!--MD5=[a5c1eb4ca5dcaf4861e8044b1ea8e3ef]
reverse link Slot to StraightSlot--><g id="link_Slot_StraightSlot"><path codeLine="27" d="M1073.21,172.53 C998.47,191.76 857.59,228.3 738,261 C732.5,262.5 726.8,264.08 721.08,265.68 " fill="none" id="Slot-backto-StraightSlot" style="stroke:#181818;stroke-width:1.0;"/><polygon fill="none" points="1071.17,165.82,1092.28,167.63,1074.66,179.38,1071.17,165.82" style="stroke:#181818;stroke-width:1.0;"/></g><!--MD5=[59ed28add5e7ac8129889e7bd3f6f6f7]
reverse link Slot to BonusSlot--><g id="link_Slot_BonusSlot"><path codeLine="28" d="M1073.81,179.52 C1014.8,202.71 919.29,240.25 860.26,263.46 " fill="none" id="Slot-backto-BonusSlot" style="stroke:#181818;stroke-width:1.0;"/><polygon fill="none" points="1071.18,173.03,1092.35,172.23,1076.3,186.06,1071.18,173.03" style="stroke:#181818;stroke-width:1.0;"/></g><!--MD5=[781d13b1eef0a67f969c5d43bcb3a235]
reverse link Slot to ProgressiveSlot--><g id="link_Slot_ProgressiveSlot"><path codeLine="29" d="M1080.68,195.55 C1054.59,216.59 1022.59,242.4 999.9,260.69 " fill="none" id="Slot-backto-ProgressiveSlot" style="stroke:#181818;stroke-width:1.0;"/><polygon fill="none" points="1076.07,190.27,1096.03,183.17,1084.86,201.17,1076.07,190.27" style="stroke:#181818;stroke-width:1.0;"/></g><!--MD5=[95b1f5197195a74a57980f078c849deb]
reverse link Slot to Cabinet--><g id="link_Slot_Cabinet"><path codeLine="31" d="M1126,196.51 C1126,217.45 1126,242.87 1126,260.91 " fill="none" id="Slot-backto-Cabinet" style="stroke:#181818;stroke-width:1.0;"/><polygon fill="#181818" points="1126,183.73,1122,189.73,1126,195.73,1130,189.73,1126,183.73" style="stroke:#181818;stroke-width:1.0;"/></g><!--MD5=[f09bf7301ad55b210e273d4978fc2e61]
reverse link Slot to Payment--><g id="link_Slot_Payment"><path codeLine="32" d="M1158.77,192.3 C1180.08,213.96 1207.32,241.65 1226.28,260.91 " fill="none" id="Slot-backto-Payment" style="stroke:#181818;stroke-width:1.0;"/><polygon fill="#181818" points="1149.91,183.3,1151.2637,190.3829,1158.3225,191.8575,1156.9687,184.7746,1149.91,183.3" style="stroke:#181818;stroke-width:1.0;"/></g><!--MD5=[7876ee69c6b43943c377b51eda6f9fc5]
reverse link Slot to Display--><g id="link_Slot_Display"><path codeLine="33" d="M1171.18,181.96 C1215.81,204.63 1283.61,239.09 1327.87,261.57 " fill="none" id="Slot-backto-Display" style="stroke:#181818;stroke-width:1.0;"/><polygon fill="#181818" points="1159.76,176.16,1163.2976,182.4437,1170.4586,181.5951,1166.921,175.3113,1159.76,176.16" style="stroke:#181818;stroke-width:1.0;"/></g><!--MD5=[dacda1ddf427d57d06a88c39cdc46116]
reverse link Slot to CPU--><g id="link_Slot_CPU"><path codeLine="34" d="M1171.66,180.69 C1172.78,181.14 1173.89,181.58 1175,182 C1218.34,198.57 1230.62,198.46 1275,212 C1345.32,233.45 1364.78,233.58 1433,261 C1438.8,263.33 1444.87,266.11 1450.62,268.91 " fill="none" id="Slot-backto-CPU" style="stroke:#181818;stroke-width:1.0;"/><polygon fill="#181818" points="1159.79,175.62,1163.7335,181.6573,1170.8231,180.3391,1166.8796,174.3018,1159.79,175.62" style="stroke:#181818;stroke-width:1.0;"/></g><!--MD5=[1d06fc333263c199c9de167d93489914]
reverse link Slot to OS--><g id="link_Slot_OS"><path codeLine="35" d="M1171.91,180.96 C1172.95,181.32 1173.98,181.67 1175,182 C1243.86,204.22 1264.39,196.25 1335,212 C1419.69,230.9 1443.33,229.03 1524,261 C1529.87,263.33 1535.96,266.3 1541.62,269.33 " fill="none" id="Slot-backto-OS" style="stroke:#181818;stroke-width:1.0;"/><polygon fill="#181818" points="1159.89,176.2,1163.9959,182.128,1171.0471,180.618,1166.9412,174.69,1159.89,176.2" style="stroke:#181818;stroke-width:1.0;"/></g><!--MD5=[30a4e8b308ba7cc62285f0a05dc7f414]
link Slot to SlotComponentFactory--><g id="link_Slot_SlotComponentFactory"><path codeLine="37" d="M1093.89,164.45 C1038.81,173.83 922.81,193.8 825,212 C713.68,232.71 686.03,238.82 575,261 C571.63,261.67 568.2,262.36 564.73,263.06 " fill="none" id="Slot-to-SlotComponentFactory" style="stroke:#181818;stroke-width:1.0;"/><polygon fill="#181818" points="559.95,264.02,569.5621,266.1665,564.8518,263.0339,567.9844,258.3236,559.95,264.02" style="stroke:#181818;stroke-width:1.0;"/><text fill="#000000" font-family="sans-serif" font-size="13" lengthAdjust="spacing" textLength="21" x="826" y="226.897">use</text></g><!--MD5=[af213787ed3633f3d50f876410308ddc]
reverse link SlotFactory to NevadaSlotFactory--><g id="link_SlotFactory_NevadaSlotFactory"><path codeLine="39" d="M1350.32,71.35 C1332.71,91.92 1311.76,116.4 1296.77,133.91 " fill="none" id="SlotFactory-backto-NevadaSlotFactory" style="stroke:#181818;stroke-width:1.0;"/><polygon fill="none" points="1344.82,67.01,1363.14,56.37,1355.45,76.11,1344.82,67.01" style="stroke:#181818;stroke-width:1.0;"/></g><!--MD5=[8df6943c8384cf595755b3653a851b1e]
reverse link SlotFactory to NewJerseySlotFactory--><g id="link_SlotFactory_NewJerseySlotFactory"><path codeLine="40" d="M1418,71.35 C1435.77,91.92 1456.92,116.4 1472.05,133.91 " fill="none" id="SlotFactory-backto-NewJerseySlotFactory" style="stroke:#181818;stroke-width:1.0;"/><polygon fill="none" points="1412.83,76.07,1405.05,56.36,1423.42,66.92,1412.83,76.07" style="stroke:#181818;stroke-width:1.0;"/></g><!--MD5=[13bf83c7ac122c9fd8d51ea53e218ce7]
reverse link SlotFactory to WashingtonSlotFactory--><g id="link_SlotFactory_WashingtonSlotFactory"><path codeLine="41" d="M1464.37,61.63 C1523.97,83.61 1604.12,113.16 1659.32,133.52 " fill="none" id="SlotFactory-backto-WashingtonSlotFactory" style="stroke:#181818;stroke-width:1.0;"/><polygon fill="none" points="1461.98,68.21,1445.64,54.73,1466.82,55.08,1461.98,68.21" style="stroke:#181818;stroke-width:1.0;"/></g><!--MD5=[1ada56a1943f0a3d44113e70c0960c95]
link SlotFactory to Slot--><g id="link_SlotFactory_Slot"><path codeLine="43" d="M1335.77,55.36 C1286.12,79.42 1209.75,116.42 1164.15,138.52 " fill="none" id="SlotFactory-to-Slot" style="stroke:#181818;stroke-width:1.0;"/><polygon fill="#181818" points="1159.83,140.61,1169.6732,140.2759,1164.3275,138.4255,1166.178,133.0798,1159.83,140.61" style="stroke:#181818;stroke-width:1.0;"/><text fill="#000000" font-family="sans-serif" font-size="13" lengthAdjust="spacing" textLength="37" x="1272" y="99.897">create</text></g><!--MD5=[94a1281e037ff00b66b06adddde2f2b0]
reverse link SlotComponentFactory to NVStraightSlotComponentFactory--><g id="link_SlotComponentFactory_NVStraightSlotComponentFactory"><path codeLine="46" d="M371.88,316.23 C321.46,333.14 259.55,353.91 212.84,369.57 " fill="none" id="SlotComponentFactory-backto-NVStraightSlotComponentFactory" style="stroke:#181818;stroke-width:1.0;"/><polygon fill="none" points="369.37,309.69,390.56,309.96,373.82,322.96,369.37,309.69" style="stroke:#181818;stroke-width:1.0;"/></g><!--MD5=[58fc735699a84e8a928f3672a427bc76]
reverse link SlotComponentFactory to NVProgressiveSlotComponentFactory--><g id="link_SlotComponentFactory_NVProgressiveSlotComponentFactory"><path codeLine="47" d="M462,330.65 C462,344.02 462,358.15 462,369.57 " fill="none" id="SlotComponentFactory-backto-NVProgressiveSlotComponentFactory" style="stroke:#181818;stroke-width:1.0;"/><polygon fill="none" points="455,331,462,311,469,331,455,331" style="stroke:#181818;stroke-width:1.0;"/></g><!--MD5=[8439fdc0131d63f99f489a877dd6d968]
reverse link SlotComponentFactory to WSBonusSlotComponentFactory--><g id="link_SlotComponentFactory_WSBonusSlotComponentFactory"><path codeLine="48" d="M549.38,316.45 C597.78,333.32 657.03,353.97 701.78,369.57 " fill="none" id="SlotComponentFactory-backto-WSBonusSlotComponentFactory" style="stroke:#181818;stroke-width:1.0;"/><polygon fill="none" points="547.38,323.17,530.8,309.98,551.99,309.95,547.38,323.17" style="stroke:#181818;stroke-width:1.0;"/></g><!--MD5=[60cda77b373dcb897c4ad5ee164aad11]
@startuml
skinparam classFontName Courier

abstract Slot
abstract SlotFactory
abstract SlotComponentFactory

abstract StraightSlot
abstract BonusSlot
abstract ProgressiveSlot
 
abstract Cabinet
abstract Payment
abstract Display 
abstract CPU 
abstract OS 

class NevadaSlotFactory
class NewJerseySlotFactory
class WashingtonSlotFactory

class NVStraightSlotComponentFactory
class NVProgressiveSlotComponentFactory

class WSBonusSlotComponentFactory


Slot <|- - StraightSlot
Slot <|- - BonusSlot
Slot <|- - ProgressiveSlot

Slot *- - Cabinet
Slot *- - Payment
Slot *- - Display
Slot *- - CPU
Slot *- - OS

Slot - -> SlotComponentFactory: use 

SlotFactory <|- - NevadaSlotFactory
SlotFactory <|- - NewJerseySlotFactory
SlotFactory <|- - WashingtonSlotFactory

SlotFactory - -> Slot: create


SlotComponentFactory <|- - NVStraightSlotComponentFactory
SlotComponentFactory <|- - NVProgressiveSlotComponentFactory
SlotComponentFactory <|- - WSBonusSlotComponentFactory







@enduml

PlantUML version 1.2022.7(Tue Aug 23 00:01:30 ICT 2022)
(GPL source distribution)
Java Runtime: OpenJDK Runtime Environment
JVM: OpenJDK 64-Bit Server VM
Default Encoding: UTF-8
Language: en
Country: US
--></g></svg>